# xmcd CD database file
#
# Track frame offsets:
#	150
#	29277
#	55797
#	76127
#	99030
#	143653
#	177701
#	211566
#	245741
#
# Disc length: 3882 seconds
#
# Revision: 0
# Processed by: cddbd v1.5.2PL0 Copyright (c) Steve Scherf et al.
# Submitted via: CDex 1.82
#
DISCID=6b0f2809
DTITLE=Rez Abbasi - Out Of Body
DYEAR=2002
DGENRE=Jazz
TTITLE0=To Your Prefection
TTITLE1=Out Of Body
TTITLE2=Winners Circle
TTITLE3=Phosphor Colors
TTITLE4=Ganges
TTITLE5=Gold Rush
TTITLE6=Half The Battle
TTITLE7=Smile At Darkness
TTITLE8=Dark Bones
EXTD=YEAR: 2002
EXTT0=
EXTT1=
EXTT2=
EXTT3=
EXTT4=
EXTT5=
EXTT6=
EXTT7=
EXTT8=
PLAYORDER=
